<?xml version="1.0" encoding="UTF-8"?>
<svg version="1.1" xmlns="http://www.w3.org/2000/svg" width="209" height="218">
<path d="M0 0 C68.97 0 137.94 0 209 0 C209 71.94 209 143.88 209 218 C140.03 218 71.06 218 0 218 C0 146.06 0 74.12 0 0 Z " fill="#FEFEFE" transform="translate(0,0)"/>
<path d="M0 0 C1.54125549 0.00137466 1.54125549 0.00137466 3.11364746 0.0027771 C5.28902806 0.00881364 7.46440032 0.02456114 9.63964844 0.04931641 C12.92935723 0.08550417 16.21792664 0.09033758 19.5078125 0.08984375 C47.46018355 0.18101243 47.46018355 0.18101243 56.96875 5.3359375 C57.9071875 5.82835937 58.845625 6.32078125 59.8125 6.828125 C68.82838682 12.37024366 74.52589564 20.53021328 77.81640625 30.54296875 C80.49987544 42.54627105 78.25637314 56.63910962 72.46875 67.4609375 C68.24905209 73.53730249 63.20162207 78.9878814 58.23046875 84.453125 C56.4121236 86.36456037 56.4121236 86.36456037 55.36914062 88.57568359 C53.46875 90.4609375 53.46875 90.4609375 49.82348633 90.82324219 C48.31518207 90.78069922 46.80740184 90.71579461 45.30078125 90.6328125 C44.50596848 90.60495667 43.7111557 90.57710083 42.89225769 90.54840088 C40.35408551 90.45504067 37.81817065 90.3333549 35.28125 90.2109375 C33.56062002 90.14266238 31.83991571 90.07623349 30.11914062 90.01171875 C25.90118256 89.84953449 21.68502939 89.66193845 17.46875 89.4609375 C17.61789636 88.04537194 17.76940393 86.63005506 17.921875 85.21484375 C18.00598633 84.4266626 18.09009766 83.63848145 18.17675781 82.82641602 C18.36053281 81.33762344 18.58371611 79.85265838 18.86230469 78.37866211 C19.56570541 74.47093387 19.44514782 71.83289189 17.984375 68.21484375 C17.70368164 67.50787354 17.42298828 66.80090332 17.13378906 66.07250977 C16.91432617 65.54069092 16.69486328 65.00887207 16.46875 64.4609375 C17.1894165 64.44635498 17.91008301 64.43177246 18.65258789 64.41674805 C21.94599087 64.34186791 25.23842436 64.24533909 28.53125 64.1484375 C30.2318457 64.11459961 30.2318457 64.11459961 31.96679688 64.08007812 C38.89723427 63.8578192 44.74601407 63.66616305 50.2109375 58.9609375 C55.14008261 52.4340695 55.28028786 46.45364174 54.46875 38.4609375 C52.84777164 33.56012909 50.90581678 31.2279719 46.34375 28.79296875 C39.42123695 26.39671423 31.71762341 26.88051438 24.46875 26.7734375 C22.91533657 26.7402172 21.36194983 26.70572328 19.80859375 26.66992188 C16.02879407 26.58555502 12.2490491 26.51849421 8.46875 26.4609375 C8.43825 30.51473559 8.45485828 34.56560206 8.51147461 38.61914062 C8.52445452 39.9921263 8.52549765 41.36528727 8.51342773 42.73828125 C8.44230514 52.0045397 9.61798738 58.2771681 14.87280273 65.99902344 C18.34500825 71.35526031 17.97386137 76.97791636 16.7265625 83.109375 C13.96097322 92.20721008 10.72434007 98.05610588 2.46875 103.4609375 C0.82419725 104.18042933 -0.83791738 104.86524727 -2.53125 105.4609375 C-3.31449637 99.32550761 -1.57591493 96.39131183 2.05859375 91.4765625 C4.79531551 87.564794 5.14351723 84.10933395 4.46875 79.4609375 C2.9426346 77.58787224 2.9426346 77.58787224 0.96875 75.7109375 C-4.07661703 70.57611361 -6.25723297 64.65670804 -8.74023438 58.02441406 C-9.04767578 57.22229492 -9.35511719 56.42017578 -9.671875 55.59375 C-9.93516602 54.87074707 -10.19845703 54.14774414 -10.46972656 53.40283203 C-11.39819254 51.29153458 -11.39819254 51.29153458 -13.61206055 50.3137207 C-16.40236587 47.61996328 -16.04395565 45.28134346 -16.11268616 41.51515198 C-16.10772629 40.58073776 -16.10276642 39.64632355 -16.09765625 38.68359375 C-16.10385483 37.72069931 -16.11005341 36.75780487 -16.11643982 35.76573181 C-16.12354477 33.72900403 -16.12035224 31.69221825 -16.10766602 29.65551758 C-16.09381531 26.53813726 -16.12784272 23.42376652 -16.16601562 20.30664062 C-16.16696695 18.32812426 -16.16510731 16.34960414 -16.16015625 14.37109375 C-16.17341446 13.43870377 -16.18667267 12.50631378 -16.20033264 11.54566956 C-16.14206449 7.49660678 -16.06793548 5.20003803 -13.65014648 1.87036133 C-9.08120816 -0.19433385 -4.95974334 -0.07248324 0 0 Z " fill="#080808" transform="translate(75.53125,33.5390625)"/>
<path d="M0 0 C1.2065625 0.0309375 1.2065625 0.0309375 2.4375 0.0625 C2.76621094 0.99449219 3.09492187 1.92648438 3.43359375 2.88671875 C6.92420641 12.37697842 11.37873222 19.96798624 17.4375 28.0625 C19.4375 31.0625 19.4375 31.0625 19.28515625 33.34375 C17.86655205 37.89374319 15.31661909 41.80188443 12.93359375 45.90625 C11.46215717 49.01048173 11.00435093 50.69491851 11.4375 54.0625 C12.47728185 55.31128498 12.47728185 55.31128498 14.75 55.3125 C17.90264185 55.01923099 19.04344911 54.0437835 21.4375 52.0625 C22.0975 52.0625 22.7575 52.0625 23.4375 52.0625 C23.4375 61.6325 23.4375 71.2025 23.4375 81.0625 C28.09709225 81.13185446 32.75485114 81.19143637 37.41455078 81.22729492 C38.99534211 81.24226271 40.57609278 81.26264437 42.15673828 81.28881836 C52.20902439 81.45095201 61.30314927 81.52974171 70.3125 76.4375 C75.19559625 70.97992184 77.1082818 64.89203976 76.84765625 57.6171875 C76.25303706 53.91355939 74.86112956 50.74026391 73.21484375 47.38671875 C72.1937614 44.33373383 72.28773438 43.08961729 73.4375 40.0625 C75.28115421 37.61503699 77.36242469 35.44132006 79.5 33.25 C80.06783203 32.65251953 80.63566406 32.05503906 81.22070312 31.43945312 C82.61759483 29.97212991 84.02640128 28.5161658 85.4375 27.0625 C92.32627846 30.1357266 95.75756473 36.04323958 98.67578125 42.75390625 C102.77286311 55.17121588 101.75048357 71.28511227 96.4375 83.0625 C94.70205727 86.32333188 92.76329249 89.19608746 90.4375 92.0625 C89.93605469 92.68769531 89.43460937 93.31289062 88.91796875 93.95703125 C81.82672273 101.87645199 70.91937861 106.63891887 60.36683655 107.23634338 C56.68042049 107.29340946 52.99924206 107.2872451 49.3125 107.2578125 C47.95630096 107.2540756 46.6000992 107.25123183 45.24389648 107.24923706 C41.69948685 107.2416538 38.15524492 107.22205195 34.61090088 107.1998291 C30.98411323 107.17925534 27.35729811 107.17021085 23.73046875 107.16015625 C16.6327445 107.13880021 9.53513328 107.10472958 2.4375 107.0625 C-0.01556867 102.01893244 -0.93935335 98.36520533 -0.92578125 92.66015625 C-0.92627975 91.97876083 -0.92677826 91.29736542 -0.92729187 90.59532166 C-0.92496725 89.1641852 -0.91533482 87.7330434 -0.89868164 86.30200195 C-0.87509679 84.13389768 -0.87813204 81.96702827 -0.88476562 79.79882812 C-0.85263293 63.49769939 -0.85263293 63.49769939 3.4375 57.0625 C3.45488488 53.69562919 2.8936071 50.39519166 2.4375 47.0625 C2.334375 45.9075 2.23125 44.7525 2.125 43.5625 C1.898125 42.7375 1.67125 41.9125 1.4375 41.0625 C0.56738281 40.63904297 0.56738281 40.63904297 -0.3203125 40.20703125 C-3.25844941 38.70725056 -4.94227764 36.71341085 -7.125 34.25 C-7.88941406 33.39792969 -8.65382813 32.54585937 -9.44140625 31.66796875 C-13.96624178 26.10983745 -14.91896947 23.0730663 -14.5625 16.0625 C-12.6640625 16.25 -12.6640625 16.25 -10.5625 17.0625 C-9.5859375 19.3125 -9.5859375 19.3125 -8.9375 22.0625 C-8.53175914 23.7427445 -8.08329122 25.41428165 -7.5625 27.0625 C-6.9025 27.3925 -6.2425 27.7225 -5.5625 28.0625 C-5.85125 27.22847656 -6.14 26.39445312 -6.4375 25.53515625 C-8.67139103 18.76367406 -10.04567823 13.18937895 -9.5625 6.0625 C-7.734375 6.265625 -7.734375 6.265625 -5.5625 7.0625 C-4.078125 9.171875 -4.078125 9.171875 -2.8125 11.8125 C-2.38453125 12.67359375 -1.9565625 13.5346875 -1.515625 14.421875 C-0.52613371 17.16325251 -0.37547763 19.17404335 -0.5625 22.0625 C0.0975 22.0625 0.7575 22.0625 1.4375 22.0625 C0.79381658 19.93684778 0.14748756 17.81199654 -0.5 15.6875 C-0.85964844 14.50414063 -1.21929687 13.32078125 -1.58984375 12.1015625 C-2.43826274 9.18323182 -2.43826274 9.18323182 -3.5625 7.0625 C-3.6875 4 -3.6875 4 -3.5625 1.0625 C-2.5625 0.0625 -2.5625 0.0625 0 0 Z " fill="#090909" transform="translate(59.5625,84.9375)"/>
<path d="M0 0 C1.65 0 3.3 0 5 0 C7.56660056 4.94386174 9.97010908 9.7997062 11.8125 15.0625 C13.32944576 19.07831491 15.27514375 21.60285117 18.25 24.6875 C20.96484428 27.57455456 21.91478042 28.59520698 22.75 32.5625 C21.32331703 39.10146363 18.05808155 44.14228727 14.10546875 49.45703125 C12.84629711 51.21453231 11.87035664 53.02191673 11 55 C11.6016672 48.20975594 14.14475363 43.83817676 17.6015625 38.0859375 C19.19048305 35.17245329 19.19048305 35.17245329 18.94140625 32.41796875 C17.7984179 29.48224349 16.26840256 27.40752552 14.3125 24.9375 C8.84079648 17.6550169 4.17640413 10.15431721 3 1 C2.01 0.67 1.02 0.34 0 0 Z " fill="#DDDDDD" transform="translate(59,84)"/>
<path d="M0 0 C0.4375 2.0625 0.4375 2.0625 0 5 C-2.87766252 8.6048138 -6.17227362 11.44818241 -10 14 C-12.1875 13.625 -12.1875 13.625 -14 13 C-14.2734375 10.734375 -14.2734375 10.734375 -14 8 C-12.1015625 6.015625 -12.1015625 6.015625 -9.625 4.25 C-8.40683594 3.36054688 -8.40683594 3.36054688 -7.1640625 2.453125 C-4.38081922 0.5842324 -3.41692492 0 0 0 Z " fill="#232323" transform="translate(60,128)"/>
<path d="M0 0 C2.64 0 5.28 0 8 0 C8 0.33 8 0.66 8 1 C6.02 1.33 4.04 1.66 2 2 C2.515625 2.99 3.03125 3.98 3.5625 5 C6.48665813 11.86901297 3.55070453 19.02182962 2 26 C11.24 26 20.48 26 30 26 C30 26.33 30 26.66 30 27 C25.90658501 27.02469575 21.81319879 27.04285793 17.71972656 27.05493164 C16.32681523 27.0599643 14.9339092 27.06679098 13.54101562 27.07543945 C11.54038754 27.08755152 9.53972112 27.09270412 7.5390625 27.09765625 C6.33459473 27.10289307 5.13012695 27.10812988 3.88916016 27.11352539 C1 27 1 27 -1 26 C-0.54177532 22.53058454 -0.10868317 19.32604951 1 16 C1.21637639 10.59059016 0.67991975 5.35436806 0 0 Z " fill="#BDBDBD" transform="translate(91,97)"/>
<path d="M0 0 C0 2.125 0 2.125 -1 5 C-4.30933954 8.16835871 -7.31030015 11 -12 11 C-12.234375 8.70703125 -12.234375 8.70703125 -12 6 C-10.390625 4.19921875 -10.390625 4.19921875 -8.25 2.6875 C-7.55390625 2.17574219 -6.8578125 1.66398437 -6.140625 1.13671875 C-4 0 -4 0 0 0 Z " fill="#232323" transform="translate(54,123)"/>
<path d="M0 0 C0.66 0 1.32 0 2 0 C1.51858704 5.0548361 -0.02817367 7.92435247 -3 12 C-5.21721059 15.2606038 -7.34564567 18.41556563 -9 22 C-8.52269189 16.17381053 -6.80741399 12.11335035 -3.9375 7.0625 C-3.56044922 6.37865234 -3.18339844 5.69480469 -2.79492188 4.99023438 C-1.87299058 3.32142204 -0.93784488 1.65992136 0 0 Z " fill="#D6D6D6" transform="translate(79,117)"/>
<path d="M0 0 C-1.25844278 3.88019859 -2.42416203 5.9411842 -6 8 C-6.99 8 -7.98 8 -9 8 C-8.66410006 4.86493389 -7.97334828 3.974751 -5.625 1.75 C-3 0 -3 0 0 0 Z " fill="#484848" transform="translate(61,139)"/>
<path d="M0 0 C0.33 0 0.66 0 1 0 C1 1.65 1 3.3 1 5 C3.31 3.35 5.62 1.7 8 0 C8.66 0.33 9.32 0.66 10 1 C8.84807997 4.4557601 8.08865366 5.19828537 5 7 C2.3125 7.25 2.3125 7.25 0 7 C-1 6 -1 6 -1.125 3.5 C-1 1 -1 1 0 0 Z " fill="#F0F0F0" transform="translate(72,134)"/>
<path d="M0 0 C3 1 3 1 3.94921875 2.671875 C5.33170943 6.56333025 6.39357798 9.80183483 6 14 C5.34 14 4.68 14 4 14 C3.5196682 12.41701974 3.04078388 10.83360022 2.5625 9.25 C2.29566406 8.36828125 2.02882812 7.4865625 1.75390625 6.578125 C1.11531506 4.39434165 0.53224167 2.21164502 0 0 Z " fill="#DCDCDC" transform="translate(55,93)"/>
<path d="M0 0 C2.87579981 4.31369972 4 7.80734761 4 13 C3.01 12.67 2.02 12.34 1 12 C0.63762737 10.37681021 0.28534843 8.7513642 -0.0625 7.125 C-0.25972656 6.22007813 -0.45695312 5.31515625 -0.66015625 4.3828125 C-1 2 -1 2 0 0 Z " fill="#DDDDDD" transform="translate(50,100)"/>
<path d="M0 0 C4.6875 3.515625 4.6875 3.515625 6 5 C6 6.32 6 7.64 6 9 C1.60841671 7.5361389 1.12052567 5.02168662 -1 1 C-0.67 0.67 -0.34 0.34 0 0 Z " fill="#F2F2F2" transform="translate(75,108)"/>
<path d="M0 0 C4.42679007 1.47559669 4.91432696 3.90057368 7 8 C7 8.66 7 9.32 7 10 C2.57320993 8.52440331 2.08567304 6.09942632 0 2 C0 1.34 0 0.68 0 0 Z " fill="#E5E5E5" transform="translate(68,99)"/>
<path d="M0 0 C2.64 0 5.28 0 8 0 C8 0.33 8 0.66 8 1 C6.02 1.33 4.04 1.66 2 2 C2.66 3.98 3.32 5.96 4 8 C3.01 8.33 2.02 8.66 1 9 C0.67 6.03 0.34 3.06 0 0 Z " fill="#D6D6D6" transform="translate(91,97)"/>
<path d="M0 0 C0.598125 0.20625 1.19625 0.4125 1.8125 0.625 C-0.5 3.125 -0.5 3.125 -3.1875 5.625 C-4.1775 5.625 -5.1675 5.625 -6.1875 5.625 C-5.875 3.75 -5.875 3.75 -5.1875 1.625 C-2.1875 -0.375 -2.1875 -0.375 0 0 Z " fill="#4E4E4E" transform="translate(47.1875,119.375)"/>
<path d="M0 0 C0.66 0.33 1.32 0.66 2 1 C1.67 3.64 1.34 6.28 1 9 C0.01 8.67 -0.98 8.34 -2 8 C-1.125 1.125 -1.125 1.125 0 0 Z " fill="#D1D1D1" transform="translate(92,115)"/>
</svg>
