<svg xmlns="http://www.w3.org/2000/svg" xmlns:xlink="http://www.w3.org/1999/xlink" xmlns:inkscape="http://www.inkscape.org/namespaces/inkscape" version="1.1" width="612" height="792" viewBox="0 0 612 792">
<g inkscape:groupmode="layer" inkscape:label="Layer 1">
<path transform="matrix(1,0,0,-1,0,792)" d="M241.9923 550.273C241.9923 510.1262 242.3083 530.6343 249.4704 516.8574 257.4587 501.4916 254.1611 493.9449 272.6904 478.8162 272.1251 470.5336 270.7112 465.3482 266.777 460.5046 261.5278 454.0428 259.8129 452.9591 261.5275 443.0877 267.1089 446.6889 272.1217 449.9226 277.1374 454.6791 283.4838 460.6977 283.7432 466.0971 286.6643 475.4126 294.1197 499.1902 275.4814 500.1248 275.4814 519.6487V553.676C293.6486 553.676 326.2394 557.6749 335.2323 546.5659 348.6461 529.9954 341.1235 505.9392 324.9859 501.8219 313.3706 498.8588 298.9253 500.934 286.6442 500.934 298.5497 479.255 288.3801 483.8547 288.0397 465.2053H322.9237C334.4009 465.2053 335.5415 459.2477 342.087 469.0514 345.9149 474.7856 343.4729 472.0952 348.2198 476.8963 369.1222 498.0376 373.1567 509.5324 373.1567 536.6622 373.1567 553.4663 363.8752 567.0068 353.8463 576.0669 333.4983 594.4493 293.0893 589.4042 262.923 589.4042 245.9055 589.4042 243.9757 588.3789 243.2968 581.0083 242.3452 570.6711 241.9923 561.5138 241.9923 550.273" fill="#050505" fill-rule="evenodd"/>
<path transform="matrix(1,0,0,-1,0,792)" d="M235.0154 293.3691H241.9923C256.1899 293.3691 271.2949 275.2886 271.2949 257.6404V249.1336C271.2949 229.8932 256.6743 213.4052 236.4109 213.4052 219.416 213.4052 205.2873 233.242 204.8159 252.7308 204.3556 271.7714 218.696 293.3691 235.0154 293.3691ZM177.8054 254.238C177.8054 196.9197 234.6089 154.7711 279.2798 200.2671 301.4649 222.8627 305.1363 268.575 285.0934 299.9849 275.2563 315.4011 254.4097 327.3959 237.8064 327.3959 208.7206 327.3959 177.8054 293.9542 177.8054 254.238" fill="#050505" fill-rule="evenodd"/>
<path transform="matrix(1,0,0,-1,0,792)" d="M244.783 487.3229H241.9923C240.4766 495.2543 236.8987 510.3848 229.434 511.1419 224.9246 501.3556 232.4049 492.4797 235.0154 478.8162 229.4739 480.6201 231.5503 480.8962 228.9756 488.4653 227.0894 494.0116 227.1665 495.9981 222.4573 497.5311 215.807 483.0987 233.5572 472.8657 237.5442 466.5875 237.7253 466.302 237.9073 465.8346 238.0915 465.5531 245.3975 454.3875 240.7405 473.2858 247.2063 447.4746 251.4243 430.634 241.9923 447.6574 241.9923 415.8663 241.9923 401.8071 239.1647 369.9298 247.5737 369.9298H324.3192C352.5976 369.9298 381.5291 393.8703 381.5291 427.7755 381.5291 451.4924 381.1127 466.6088 361.9939 482.2189L342.1219 458.8109C351.2353 442.9278 353.4384 425.9367 340.2164 411.9534 329.4669 400.5836 289.4267 405.6582 275.4814 405.6582 273.0498 418.3824 275.4814 431.2862 275.4814 446.4907 267.0962 445.64 266.5213 436.8322 258.7365 441.3864 252.595 448.8746 264.8591 462.0971 269.8994 473.7121 267.3527 478.3496 249.9316 496.1378 244.783 519.6487 227.8361 519.1886 243.7897 501.8754 244.783 487.3229" fill="#050505" fill-rule="evenodd"/>
<path transform="matrix(1,0,0,-1,0,792)" d="M307.5744 242.3282V184.4824H335.482C335.482 198.1208 337.5354 207.5462 336.8846 221.9199 336.0784 239.722 330.6495 267.8148 344.232 282.7003 362.7842 303.0324 386.8087 292.35 394.5127 271.77 398.7196 260.5314 396.8779 201.5297 396.8779 184.4824H423.39V264.4458C423.39 291.8633 397.2249 325.6943 370.366 325.6943 349.5932 325.6943 333.2684 319.2009 321.4984 300.2105 309.9124 281.5177 307.5744 268.6606 307.5744 242.3282" fill="#050505" fill-rule="evenodd"/>
<path transform="matrix(1,0,0,-1,0,792)" d="M507.1122 358.0203V325.6943C484.6357 325.6943 468.2713 326.1776 450.8963 305.7673 415.2586 263.9018 434.8091 184.4824 498.7397 184.4824 505.4037 184.4824 502.9257 195.8729 502.9257 216.8082 486.4351 216.8082 474.6841 217.44 465.2626 235.5372 454.4002 256.4033 460.6092 293.4723 495.8994 293.4295 503.3537 293.4201 510.821 293.396 518.277 293.3666 541.1897 293.2756 536.4147 282.545 536.4147 358.0203 536.4147 366.008 527.8425 363.1246 511.2981 363.1246 508.0827 363.1246 507.1122 361.9406 507.1122 358.0203" fill="#050505" fill-rule="evenodd"/>
<path transform="matrix(1,0,0,-1,0,792)" d="M66.1762 358.0203V293.3691C87.2382 293.3691 116.8313 297.3348 130.4461 284.9635 144.887 271.842 155.2748 216.8082 98.2695 216.8082 98.2695 180.2041 95.5191 184.4824 109.4326 184.4824 125.4192 184.4824 141.963 194.2557 153.0649 207.8427 164.2544 221.5375 170.4606 240.2631 168.1954 264.5929 165.1949 296.824 145.1452 318.5303 121.2253 324.7617 116.2483 326.058 112.0683 325.7918 106.6025 325.6472 86.8102 325.1228 96.4687 328.1717 94.0833 363.1246 88.9512 363.1246 83.8171 363.0801 78.6858 363.1833 72.474 363.3083 66.1762 365.1925 66.1762 358.0203" fill="#050505" fill-rule="evenodd"/>
<path transform="matrix(1,0,0,-1,0,792)" d="M512.6936 201.496C512.6936 184.5899 528.7558 175.8246 538.0889 189.2463 546.5174 201.3667 540.0904 218.5092 526.6474 218.5092 519.6317 218.5092 512.6936 210.0495 512.6936 201.496" fill="#050505" fill-rule="evenodd"/>
<path transform="matrix(1,0,0,-1,0,792)" d="M222.4573 444.7894C222.4573 430.8729 240.1532 449.028 241.3559 450.7835 243.8685 454.4501 242.7891 453.8132 241.9923 458.3999 233.3937 458.1666 222.4573 446.6639 222.4573 444.7894" fill="#161616" fill-rule="evenodd"/>
<path transform="matrix(1,0,0,-1,0,792)" d="M216.8759 454.9975C217.9324 452.7048 217.6379 453.1167 218.2711 449.8931 224.9246 451.7833 222.6115 452.2765 227.2065 456.0117 232.2921 460.1458 231.4097 456.9386 235.0154 463.504L233.4107 466.8219C227.7088 465.2274 219.8066 460.3343 216.8759 454.9975" fill="#161616" fill-rule="evenodd"/>
<path transform="matrix(1,0,0,-1,0,792)" d="M230.8294 432.8796C238.3226 430.9447 243.6216 439.4849 244.783 444.7894 238.6097 443.0358 232.3641 439.8888 230.8294 432.8796" fill="#393939" fill-rule="evenodd"/>
<path transform="matrix(1,0,0,-1,0,792)" d="M216.8759 463.504C220.2619 461.5588 225.9111 468.1366 228.0387 472.0107 224.4025 471.6417 219.1119 470.0894 217.0675 466.5257 213.7567 460.7541 216.165 465.463 216.8759 463.504" fill="#393939" fill-rule="evenodd"/>
<path transform="matrix(1,0,0,-1,0,792)" d="M222.4573 473.7121C221.9624 480.964 221.6976 482.3507 216.8759 483.9205 218.2989 476.4728 217.1095 475.4531 222.4573 473.7121" fill="#393939" fill-rule="evenodd"/>
</g>
</svg>
